Coordinates
version=1
nRows=13
nColumns=22
inDegrees=yes

Units are S.I. units (second, meters, Newtons, ...)
If the header above contains a line with 'inDegrees', this indicates whether rotational values are in degrees (yes) or radians (no).

endheader
time	pelvis_tilt	pelvis_list	pelvis_rotation	pelvis_tx	pelvis_ty	pelvis_tz	hip_flexion_r	hip_adduction_r	hip_rotation_r	knee_angle_r	ankle_angle_r	subtalar_angle_r	hip_flexion_l	hip_adduction_l	hip_rotation_l	knee_angle_l	ankle_angle_l	subtalar_angle_l	lumbar_extension	lumbar_bending	lumbar_rotation
      4.45000000	     -2.36730962	    -10.58225413	     64.54208861	      0.87478697	      0.97590421	     -0.18804284	     27.95473259	      6.24739261	     -2.93094313	    -27.83548500	     13.80781645	     -7.89622941	     28.84578665	     -4.54548032	     -4.26496279	    -51.23272789	     18.14498483	      1.36907016	      0.16136827	      5.59287181	      3.91384438
      4.46000000	     -2.38641907	    -10.59720797	     64.55266623	      0.87687194	      0.97624756	     -0.19098858	     27.66763774	      6.29345766	     -2.88544338	    -27.69281906	     13.87812775	     -8.12682741	     28.91313112	     -4.55203266	     -4.25923765	    -49.86406352	     18.55906929	      1.01811003	      0.18204923	      5.59901664	      3.98890939
      4.47000000	     -2.40917587	    -10.61720502	     64.55008319	      0.87890143	      0.97655571	     -0.19388464	     27.39939466	      6.33931515	     -2.83140280	    -27.56553022	     13.95260611	     -8.32187352	     28.95731355	     -4.54791396	     -4.24901807	    -48.48540084	     18.95895284	      0.74147746	      0.21193605	      5.60541290	      4.07971221
      4.48000000	     -2.43977749	    -10.64790645	     64.53688965	      0.88087538	      0.97681538	     -0.19673768	     27.15864068	      6.37685883	     -2.79722395	    -27.45534986	     14.03558115	     -8.46200583	     28.98867021	     -4.53285963	     -4.24255511	    -47.10512106	     19.37081001	      0.53429765	      0.26125831	      5.61141209	      4.15771404
      4.49000000	     -2.47359118	    -10.66103773	     64.51580891	      0.88277989	      0.97710408	     -0.19954813	     26.89921422	      6.41038638	     -2.71280196	    -27.33223201	     14.12803176	     -8.59544315	     28.97040502	     -4.47801525	     -4.19160015	    -45.71078921	     19.73501489	      0.30240673	      0.29356919	      5.60789774	      4.23925329
      4.50000000	     -2.52236149	    -10.69222092	     64.48824664	      0.88460424	      0.97732941	     -0.20231649	     26.68025713	      6.42768215	     -2.65826917	    -27.23007474	     14.24063604	     -8.66691733	     28.95213906	     -4.39903332	     -4.12349098	    -44.32317679	     20.12460349	      0.16344903	      0.35683508	      5.60199561	      4.30712243
      4.51000000	     -2.58538376	    -10.73851011	     64.45587540	      0.88633627	      0.97750280	     -0.20504290	     26.49393298	      6.42877222	     -2.62812929	    -27.13910494	     14.36478405	     -8.69962546	     28.93291523	     -4.29389439	     -4.03615288	    -42.94714099	     20.52990879	      0.10707411	      0.44651770	      5.59418574	      4.36155643
      4.52000000	     -2.66204457	    -10.76404292	     64.41127658	      0.88798957	      0.97769871	     -0.20774213	     26.29693625	      6.40794979	     -2.57455760	    -27.04864491	     14.50790700	     -8.71550119	     28.86453029	     -4.14508981	     -3.92396383	    -41.56617554	     20.90540747	      0.08657650	      0.52336705	      5.56817679	      4.42188334
      4.53000000	     -2.74537382	    -10.78986371	     64.35907083	      0.88956365	      0.97788218	     -0.21040953	     26.10778718	      6.37713672	     -2.52021018	    -26.95912634	     14.65666485	     -8.70888003	     28.77403557	     -3.97368029	     -3.79025917	    -40.19961027	     21.26896802	      0.13731815	      0.60695722	      5.54125038	      4.47663732
      4.54000000	     -2.83522768	    -10.81284587	     64.29807778	      0.89110315	      0.97805366	     -0.21303416	     25.92579121	      6.33788078	     -2.47091544	    -26.87585698	     14.81199091	     -8.68073067	     28.65914571	     -3.78899120	     -3.64857316	    -38.85560138	     21.61610769	      0.27400669	      0.69511245	      5.50078695	      4.52586848
      4.55000000	     -2.91799865	    -10.81892578	     64.23018838	      0.89258385	      0.97825392	     -0.21564554	     25.72279336	      6.29821409	     -2.39752493	    -26.78542983	     14.97041665	     -8.61497829	     28.50165836	     -3.59964817	     -3.51243757	    -37.54599072	     21.90350047	      0.53928972	      0.76705056	      5.46583866	      4.58060139
      4.56000000	     -3.01176682	    -10.84350894	     64.16777756	      0.89400424	      0.97837961	     -0.21823420	     25.56267952	      6.24136211	     -2.38064962	    -26.72409638	     15.12784833	     -8.56374470	     28.35631048	     -3.40824720	     -3.39348054	    -36.29733840	     22.17629789	      0.79588484	      0.87500304	      5.42603626	      4.61609104
      4.57000000	     -3.07888282	    -10.84403266	     64.09419932	      0.89541655	      0.97856243	     -0.22080281	     25.35924228	      6.20877268	     -2.31492195	    -26.64669379	     15.28502669	     -8.47478022	     28.15687936	     -3.23832739	     -3.28706000	    -35.11054429	     22.31861443	      1.16329203	      0.94920301	      5.40182426	      4.66723788
